<svg width="7" height="12" viewBox="0 0 7 12" xmlns="http://www.w3.org/2000/svg" xmlns:sketch="http://www.bohemiancoding.com/sketch/ns"><title>Shape</title><desc>Created with Sketch.</desc><path d="M2.152 6l4.726-4.725c.08-.08.12-.172.12-.277 0-.104-.04-.196-.12-.276l-.601-.601c-.08-.08-.172-.12-.276-.12-.104 0-.196.04-.277.12l-5.603 5.603c-.08.08-.12.172-.12.277 0 .104.04.196.12.277l5.603 5.603c.08.08.172.12.277.12.104 0 .196-.04.276-.12l.601-.601c.08-.08.12-.172.12-.277 0-.104-.04-.196-.12-.276l-4.725-4.726z" fill="#fff" sketch:type="MSShapeGroup"/></svg>